<?xml version="1.0"?>
<svg xmlns="http://www.w3.org/2000/svg" xmlns:xlink="http://www.w3.org/1999/xlink" xmlns:svgjs="http://svgjs.com/svgjs" version="1.1" width="512" height="512" x="0" y="0" viewBox="0 0 508.007 508.007" style="enable-background:new 0 0 512 512" xml:space="preserve" class=""><g><g xmlns="http://www.w3.org/2000/svg"><g fill="#eeefee"><path d="m242.026 39.652h23.953v198.031h-23.953z" fill="#eeefee" data-original="#eeefee" style="" class=""/><path d="m242.026 270.319h23.953v198.031h-23.953z" fill="#eeefee" data-original="#eeefee" style="" class=""/><path d="m242.026 39.652h23.953v198.031h-23.953z" fill="#eeefee" data-original="#eeefee" style="" class=""/><path d="m242.026 270.319h23.953v198.031h-23.953z" fill="#eeefee" data-original="#eeefee" style="" class=""/><path d="m236.543 160.474h198.031v23.953h-198.031z" transform="matrix(.707 -.707 .707 .707 -23.658 287.786)" fill="#eeefee" data-original="#eeefee" style="" class=""/><path d="m73.436 323.583h198.031v23.953h-198.031z" transform="matrix(.707 -.707 .707 .707 -186.767 220.225)" fill="#eeefee" data-original="#eeefee" style="" class=""/><path d="m236.543 160.474h198.031v23.953h-198.031z" transform="matrix(.707 -.707 .707 .707 -23.658 287.786)" fill="#eeefee" data-original="#eeefee" style="" class=""/><path d="m73.436 323.583h198.031v23.953h-198.031z" transform="matrix(.707 -.707 .707 .707 -186.767 220.225)" fill="#eeefee" data-original="#eeefee" style="" class=""/><path d="m270.326 242.031h198.031v23.953h-198.031z" fill="#eeefee" data-original="#eeefee" style="" class=""/><path d="m39.659 242.025h198.031v23.953h-198.031z" fill="#eeefee" data-original="#eeefee" style="" class=""/><path d="m270.326 242.031h198.031v23.953h-198.031z" fill="#eeefee" data-original="#eeefee" style="" class=""/><path d="m39.659 242.025h198.031v23.953h-198.031z" fill="#eeefee" data-original="#eeefee" style="" class=""/><path d="m323.58 236.54h23.953v198.031h-23.953z" transform="matrix(.707 -.707 .707 .707 -138.991 335.557)" fill="#eeefee" data-original="#eeefee" style="" class=""/><path d="m160.475 73.437h23.953v198.031h-23.953z" transform="matrix(.707 -.707 .707 .707 -71.432 172.452)" fill="#eeefee" data-original="#eeefee" style="" class=""/><path d="m323.58 236.54h23.953v198.031h-23.953z" transform="matrix(.707 -.707 .707 .707 -138.991 335.557)" fill="#eeefee" data-original="#eeefee" style="" class=""/><path d="m160.475 73.437h23.953v198.031h-23.953z" transform="matrix(.707 -.707 .707 .707 -71.432 172.452)" fill="#eeefee" data-original="#eeefee" style="" class=""/></g><circle cx="254.005" cy="254.004" fill="#dcdcdc" r="76.619" data-original="#828a9e" style="" class=""/><ellipse cx="254.001" cy="39.652" fill="#105f9a" rx="39.642" ry="39.642" transform="matrix(.197 -.98 .98 .197 165.036 280.846)" data-original="#f6c863" style="" class=""/><circle cx="254.006" cy="468.355" fill="#105f9a" r="39.642" data-original="#f6c863" style="" class=""/><circle cx="405.575" cy="102.437" fill="#adbec5" r="39.642" data-original="#69b0ee" style="" class=""/><circle cx="102.435" cy="405.571" fill="#adbec5" r="39.642" data-original="#69b0ee" style="" class=""/><circle cx="468.358" cy="253.999" fill="#f14052" r="39.642" data-original="#ef5261" style="" class=""/><ellipse cx="39.649" cy="254.004" fill="#f14052" rx="39.642" ry="39.642" transform="matrix(.98 -.197 .197 .98 -49.314 12.808)" data-original="#ef5261" style="" class=""/><circle cx="405.571" cy="405.571" fill="#ffb878" r="39.642" data-original="#2cbfae" style="" class=""/><circle cx="102.441" cy="102.435" fill="#ffb878" r="39.642" data-original="#2cbfae" style="" class=""/></g></g></svg>
